<?xml version="1.0" encoding="utf-8"?>
<!-- Generator: Adobe Illustrator 18.1.0, SVG Export Plug-In . SVG Version: 6.00 Build 0)  -->
<svg version="1.1" id="Layer_1" xmlns="http://www.w3.org/2000/svg" xmlns:xlink="http://www.w3.org/1999/xlink" x="0px" y="0px"
	 viewBox="0 0 608 100" enable-background="new 0 0 608 100" xml:space="preserve">
<g>
	<g>
		<path fill="#606060" d="M98,50L83,23H28.769C25.583,23,23,25.59,23,28.786v42.428C23,74.409,25.583,77,28.769,77H83L98,50z"/>
		<path fill="#BB0E3D" d="M96.501,25.815C95.445,24.069,93.541,23,91.486,23h-4.485l15.201,27L87,77h4.486
			c2.055,0,3.96-1.069,5.015-2.815L110,50L96.501,25.815z"/>
	</g>
	<g>
		<rect x="55" y="38" fill="#FFFFFF" width="4" height="24"/>
		<polygon fill="#FFFFFF" points="47,38 47,55.6 36,38 32,38 32,62 36,62 36,44.4 47,62 51,62 51,38 		"/>
		<polygon fill="#FFFFFF" points="78,38 78,48 67,48 67,38 63,38 63,62 67,62 67,52 78,52 78,62 82,62 82,38 		"/>
	</g>
</g>
<g>
	<g>
		<path fill="#BB0E3D" d="M130.854,31h2.495v11.184h-2.495l-5.328-7.008v7.008h-2.496V31h2.336l5.488,7.199V31z"/>
		<path fill="#BB0E3D" d="M144.069,42.183l-1.04-2.416h-4.688l-1.04,2.416h-2.656L139.477,31h2.416l4.832,11.184L144.069,42.183
			L144.069,42.183z M140.693,34.327l-1.407,3.248h2.8L140.693,34.327z"/>
		<path fill="#BB0E3D" d="M151.941,33.159v9.024h-2.495v-9.024h-3.168V31h8.831v2.159H151.941z"/>
		<path fill="#BB0E3D" d="M156.933,31h2.496v11.184h-2.496V31z"/>
		<path fill="#BB0E3D" d="M171.589,40.639c-1.131,1.104-2.522,1.656-4.176,1.656s-3.046-0.553-4.176-1.656
			c-1.131-1.104-1.696-2.478-1.696-4.12s0.565-3.016,1.696-4.12c1.13-1.104,2.522-1.656,4.176-1.656s3.045,0.553,4.176,1.656
			c1.131,1.104,1.696,2.478,1.696,4.12S172.72,39.535,171.589,40.639z M170.741,36.527c0-0.997-0.32-1.848-0.96-2.552
			c-0.641-0.704-1.427-1.056-2.36-1.056s-1.72,0.352-2.36,1.056s-0.96,1.555-0.96,2.552c0,0.998,0.32,1.846,0.96,2.544
			c0.641,0.699,1.427,1.048,2.36,1.048s1.72-0.349,2.36-1.048C170.421,38.373,170.741,37.525,170.741,36.527z"/>
		<path fill="#BB0E3D" d="M183.221,31h2.496v11.184h-2.496l-5.328-7.008v7.008h-2.496V31h2.336l5.488,7.199V31z"/>
		<path fill="#BB0E3D" d="M196.437,42.183l-1.04-2.416h-4.688l-1.04,2.416h-2.656L191.845,31h2.416l4.832,11.184L196.437,42.183
			L196.437,42.183z M193.061,34.327l-1.408,3.248h2.8L193.061,34.327z"/>
		<path fill="#BB0E3D" d="M200.389,42.183V31h2.496v8.96h4.768v2.224L200.389,42.183L200.389,42.183z"/>
		<path fill="#BB0E3D" d="M218.837,39.975c1.226,0,2.229-0.485,3.008-1.456l1.6,1.648c-1.27,1.429-2.766,2.144-4.488,2.144
			s-3.141-0.544-4.256-1.632c-1.114-1.088-1.672-2.461-1.672-4.12c0-1.658,0.568-3.042,1.704-4.152
			c1.136-1.108,2.525-1.664,4.168-1.664c1.835,0,3.37,0.699,4.608,2.097l-1.553,1.76c-0.789-0.981-1.771-1.472-2.943-1.472
			c-0.939,0-1.742,0.307-2.408,0.92c-0.667,0.613-1,1.439-1,2.479s0.314,1.875,0.944,2.504
			C217.178,39.661,217.941,39.975,218.837,39.975z"/>
		<path fill="#BB0E3D" d="M233.301,42.183l-1.04-2.416h-4.688l-1.04,2.416h-2.656L228.709,31h2.416l4.832,11.184L233.301,42.183
			L233.301,42.183z M229.925,34.327l-1.408,3.248h2.8L229.925,34.327z"/>
		<path fill="#BB0E3D" d="M245.077,31h2.495v11.184h-2.495l-5.328-7.008v7.008h-2.496V31h2.336l5.488,7.199V31z"/>
		<path fill="#BB0E3D" d="M255.46,39.975c1.227,0,2.229-0.485,3.008-1.456l1.601,1.648c-1.27,1.429-2.766,2.144-4.488,2.144
			s-3.142-0.544-4.256-1.632c-1.115-1.088-1.672-2.461-1.672-4.12c0-1.658,0.567-3.042,1.704-4.152
			c1.136-1.108,2.524-1.664,4.168-1.664c1.834,0,3.37,0.699,4.607,2.097l-1.552,1.76c-0.79-0.981-1.771-1.472-2.944-1.472
			c-0.938,0-1.741,0.307-2.408,0.92c-0.666,0.613-1,1.439-1,2.479s0.315,1.875,0.944,2.504
			C253.801,39.661,254.565,39.975,255.46,39.975z"/>
		<path fill="#BB0E3D" d="M270.1,31v2.224h-5.567v2.304h5.008v2.128h-5.008v2.32h5.744v2.208h-8.24V31H270.1z"/>
		<path fill="#BB0E3D" d="M281.572,34.711c0,1.792-0.71,2.949-2.129,3.472l2.832,4h-3.071l-2.48-3.568h-1.728v3.568H272.5V31h4.24
			c1.738,0,2.979,0.293,3.72,0.88S281.572,33.41,281.572,34.711z M278.564,36.04c0.31-0.277,0.464-0.718,0.464-1.32
			s-0.159-1.017-0.479-1.24s-0.88-0.336-1.68-0.336h-1.872v3.312h1.823C277.673,36.456,278.254,36.317,278.564,36.04z"/>
		<path fill="#BB0E3D" d="M288.357,31h2.496v11.184h-2.496V31z"/>
		<path fill="#BB0E3D" d="M301.429,31h2.495v11.184h-2.495l-5.328-7.008v7.008h-2.496V31h2.336l5.488,7.199V31z"/>
		<path fill="#BB0E3D" d="M309.292,33.231c-0.24,0.197-0.36,0.459-0.36,0.784s0.146,0.584,0.439,0.776
			c0.294,0.191,0.971,0.418,2.032,0.68s1.886,0.653,2.473,1.176c0.586,0.522,0.88,1.285,0.88,2.288s-0.376,1.816-1.128,2.44
			s-1.742,0.936-2.969,0.936c-1.771,0-3.365-0.656-4.783-1.968l1.487-1.824c1.205,1.056,2.32,1.584,3.345,1.584
			c0.458,0,0.818-0.099,1.079-0.296c0.262-0.197,0.393-0.464,0.393-0.8s-0.139-0.603-0.416-0.8s-0.827-0.397-1.648-0.601
			c-1.301-0.309-2.253-0.712-2.855-1.208s-0.904-1.274-0.904-2.336s0.381-1.88,1.145-2.456c0.762-0.576,1.714-0.864,2.855-0.864
			c0.747,0,1.493,0.129,2.24,0.385c0.746,0.256,1.397,0.618,1.952,1.088l-1.265,1.824c-0.971-0.736-1.973-1.104-3.008-1.104
			C309.859,32.935,309.531,33.034,309.292,33.231z"/>
		<path fill="#BB0E3D" d="M321.524,33.159v9.024h-2.496v-9.024h-3.168V31h8.832v2.159H321.524z"/>
		<path fill="#BB0E3D" d="M326.515,31h2.496v11.184h-2.496V31z"/>
		<path fill="#BB0E3D" d="M336.499,33.159v9.024h-2.496v-9.024h-3.168V31h8.832v2.159H336.499z"/>
		<path fill="#BB0E3D" d="M344.45,39.295c0.416,0.518,0.977,0.775,1.681,0.775s1.261-0.258,1.672-0.775
			c0.41-0.518,0.616-1.225,0.616-2.12V31h2.495v6.256c0,1.621-0.447,2.866-1.344,3.735c-0.896,0.87-2.043,1.305-3.439,1.305
			c-1.397,0-2.547-0.438-3.448-1.312s-1.353-2.117-1.353-3.728V31h2.496v6.176C343.826,38.071,344.034,38.778,344.45,39.295z"/>
		<path fill="#BB0E3D" d="M358.242,33.159v9.024h-2.496v-9.024h-3.168V31h8.832v2.159H358.242z"/>
		<path fill="#BB0E3D" d="M371.298,31v2.224h-5.568v2.304h5.008v2.128h-5.008v2.32h5.744v2.208h-8.24V31H371.298z"/>
	</g>
</g>
<g>
	<path fill="#606060" d="M134.215,56.262c1.4,1.281,2.1,3.063,2.1,5.345s-0.683,4.088-2.048,5.418s-3.447,1.995-6.247,1.995h-5.019
		V54.341h5.187C130.806,54.341,132.816,54.982,134.215,56.262z M131.811,64.988c0.805-0.756,1.208-1.854,1.208-3.297
		c0-1.441-0.403-2.552-1.208-3.328c-0.806-0.777-2.041-1.166-3.707-1.166h-1.827v8.925h2.079
		C129.854,66.122,131.005,65.744,131.811,64.988z"/>
	<path fill="#606060" d="M138.972,56.284c-0.357-0.357-0.536-0.795-0.536-1.312s0.179-0.956,0.536-1.312
		c0.357-0.357,0.794-0.536,1.312-0.536s0.956,0.179,1.312,0.536c0.357,0.356,0.536,0.795,0.536,1.312s-0.179,0.955-0.536,1.312
		c-0.357,0.356-0.794,0.535-1.312,0.535S139.329,56.64,138.972,56.284z M141.859,69.02h-3.15V57.722h3.15V69.02z"/>
	<path fill="#606060" d="M147.886,69.02l-4.473-11.319h3.276l2.814,7.119l2.814-7.119h3.276L151.12,69.02H147.886z"/>
	<path fill="#606060" d="M157.41,56.284c-0.357-0.357-0.536-0.795-0.536-1.312s0.179-0.956,0.536-1.312
		c0.357-0.357,0.794-0.536,1.312-0.536s0.956,0.179,1.312,0.536c0.357,0.356,0.536,0.795,0.536,1.312s-0.179,0.955-0.536,1.312
		c-0.357,0.356-0.794,0.535-1.312,0.535S157.767,56.64,157.41,56.284z M160.297,69.02h-3.15V57.722h3.15V69.02z"/>
	<path fill="#606060" d="M171.784,65.502c0,1.113-0.41,2.006-1.229,2.678s-1.858,1.008-3.119,1.008c-0.84,0-1.715-0.15-2.625-0.451
		s-1.729-0.746-2.457-1.334l1.386-1.974c1.176,0.91,2.429,1.365,3.759,1.365c0.406,0,0.728-0.081,0.966-0.242
		c0.238-0.16,0.357-0.374,0.357-0.641c0-0.266-0.165-0.511-0.494-0.734c-0.329-0.224-0.805-0.434-1.428-0.63
		s-1.099-0.364-1.428-0.504c-0.329-0.141-0.704-0.344-1.124-0.609c-0.854-0.532-1.281-1.319-1.281-2.362s0.42-1.894,1.26-2.552
		s1.925-0.987,3.255-0.987s2.66,0.448,3.99,1.345l-1.176,2.1c-0.98-0.672-1.957-1.008-2.929-1.008c-0.973,0-1.459,0.266-1.459,0.798
		c0,0.294,0.154,0.525,0.462,0.693s0.819,0.364,1.533,0.588c0.714,0.224,1.222,0.396,1.522,0.515
		c0.301,0.118,0.662,0.304,1.082,0.556C171.392,63.595,171.784,64.389,171.784,65.502z"/>
	<path fill="#606060" d="M174.461,56.284c-0.357-0.357-0.536-0.795-0.536-1.312s0.179-0.956,0.536-1.312
		c0.357-0.357,0.794-0.536,1.312-0.536s0.956,0.179,1.312,0.536c0.357,0.356,0.536,0.795,0.536,1.312s-0.179,0.955-0.536,1.312
		c-0.357,0.356-0.794,0.535-1.312,0.535S174.818,56.64,174.461,56.284z M177.349,69.02h-3.15V57.722h3.15V69.02z"/>
	<path fill="#606060" d="M191.629,63.371c0,1.639-0.567,3.018-1.701,4.138c-1.134,1.12-2.559,1.68-4.273,1.68s-3.14-0.56-4.273-1.68
		s-1.701-2.499-1.701-4.138c0-1.638,0.567-3.02,1.701-4.147c1.134-1.126,2.559-1.69,4.273-1.69s3.14,0.564,4.273,1.69
		C191.062,60.351,191.629,61.733,191.629,63.371z M182.851,63.371c0,0.925,0.262,1.677,0.787,2.258
		c0.525,0.581,1.197,0.872,2.016,0.872s1.491-0.291,2.016-0.872s0.788-1.333,0.788-2.258c0-0.924-0.263-1.68-0.788-2.268
		s-1.197-0.882-2.016-0.882s-1.491,0.294-2.016,0.882C183.113,61.691,182.851,62.447,182.851,63.371z"/>
	<path fill="#606060" d="M197.109,62.72v6.3h-3.15V57.722h3.15v1.26c0.952-0.966,2.023-1.449,3.213-1.449s2.188,0.42,2.993,1.261
		c0.805,0.84,1.208,1.96,1.208,3.359v6.867h-3.15v-6.384c0-1.736-0.637-2.604-1.911-2.604c-0.63,0-1.18,0.228-1.648,0.683
		C197.344,61.169,197.109,61.838,197.109,62.72z"/>
	<path fill="#606060" d="M224.22,63.371c0,1.639-0.567,3.018-1.701,4.138c-1.134,1.12-2.559,1.68-4.273,1.68s-3.14-0.56-4.273-1.68
		s-1.701-2.499-1.701-4.138c0-1.638,0.567-3.02,1.701-4.147c1.134-1.126,2.559-1.69,4.273-1.69s3.14,0.564,4.273,1.69
		C223.653,60.351,224.22,61.733,224.22,63.371z M215.443,63.371c0,0.925,0.262,1.677,0.787,2.258
		c0.525,0.581,1.197,0.872,2.016,0.872s1.491-0.291,2.016-0.872s0.788-1.333,0.788-2.258c0-0.924-0.263-1.68-0.788-2.268
		s-1.197-0.882-2.016-0.882s-1.491,0.294-2.016,0.882C215.705,61.691,215.443,62.447,215.443,63.371z"/>
	<path fill="#606060" d="M230.121,57.071v0.756h2.73v2.269h-2.73v8.925h-3.171v-8.925h-1.323v-2.269h1.323v-0.692
		c0-1.232,0.375-2.209,1.124-2.93s1.68-1.082,2.793-1.082s2.124,0.421,3.034,1.261l-1.134,2.121
		c-0.462-0.532-0.973-0.799-1.533-0.799c-0.322,0-0.588,0.116-0.798,0.347C230.226,56.284,230.121,56.624,230.121,57.071z"/>
	<path fill="#606060" d="M247.403,66.122c1.61,0,2.926-0.637,3.948-1.91l2.1,2.162c-1.667,1.877-3.63,2.814-5.891,2.814
		s-4.124-0.714-5.586-2.142c-1.463-1.429-2.195-3.23-2.195-5.408c0-2.177,0.746-3.993,2.237-5.449s3.314-2.184,5.47-2.184
		c2.408,0,4.424,0.917,6.048,2.751l-2.037,2.31c-1.036-1.288-2.324-1.932-3.864-1.932c-1.232,0-2.286,0.402-3.16,1.207
		c-0.875,0.806-1.312,1.891-1.312,3.255c0,1.365,0.413,2.461,1.239,3.287S246.228,66.122,247.403,66.122z"/>
	<path fill="#606060" d="M265.191,69.02h-2.961v-1.365c-0.812,1.022-1.816,1.533-3.014,1.533c-1.197,0-2.202-0.347-3.013-1.039
		c-0.812-0.693-1.218-1.617-1.218-2.772c0-1.155,0.42-2.02,1.26-2.594c0.84-0.573,1.988-0.86,3.444-0.86h2.352V61.86
		c0-1.204-0.637-1.806-1.911-1.806c-0.546,0-1.124,0.108-1.732,0.325c-0.609,0.218-1.124,0.486-1.543,0.809l-1.407-2.037
		c1.483-1.078,3.178-1.617,5.082-1.617c1.372,0,2.492,0.344,3.36,1.029c0.868,0.687,1.302,1.771,1.302,3.255L265.191,69.02
		L265.191,69.02z M262.02,64.715v-0.546h-1.974c-1.26,0-1.89,0.392-1.89,1.176c0,0.406,0.15,0.718,0.451,0.935
		s0.731,0.325,1.292,0.325s1.053-0.171,1.48-0.515C261.806,65.748,262.02,65.29,262.02,64.715z"/>
	<path fill="#606060" d="M271.218,62.72v6.3h-3.15V57.722h3.15v1.26c0.952-0.966,2.023-1.449,3.213-1.449s2.188,0.42,2.993,1.261
		c0.805,0.84,1.208,1.96,1.208,3.359v6.867h-3.15v-6.384c0-1.736-0.637-2.604-1.911-2.604c-0.63,0-1.18,0.228-1.648,0.683
		C271.452,61.169,271.218,61.838,271.218,62.72z"/>
	<path fill="#606060" d="M286.904,66.395c1.05,0,1.995-0.525,2.835-1.575l1.869,2.101c-1.456,1.512-3.031,2.268-4.725,2.268
		s-3.126-0.535-4.295-1.606s-1.753-2.471-1.753-4.2s0.591-3.136,1.774-4.221s2.586-1.628,4.211-1.628
		c0.812,0,1.634,0.168,2.467,0.504s1.564,0.834,2.194,1.491l-1.638,2.143c-0.364-0.435-0.809-0.771-1.333-1.009
		c-0.525-0.237-1.047-0.356-1.564-0.356c-0.826,0-1.537,0.27-2.132,0.809s-0.893,1.288-0.893,2.247c0,0.959,0.297,1.704,0.893,2.236
		S286.106,66.395,286.904,66.395z"/>
	<path fill="#606060" d="M303.494,67.382c-1.274,1.204-2.769,1.806-4.483,1.806s-3.132-0.528-4.252-1.586
		c-1.12-1.057-1.68-2.474-1.68-4.252s0.57-3.192,1.711-4.242s2.489-1.575,4.043-1.575s2.873,0.47,3.958,1.407
		c1.084,0.938,1.627,2.227,1.627,3.864v1.68h-8.232c0.098,0.616,0.42,1.12,0.966,1.512c0.546,0.393,1.162,0.589,1.848,0.589
		c1.105,0,2.016-0.371,2.73-1.113L303.494,67.382z M300.47,60.683c-0.434-0.364-0.963-0.546-1.585-0.546
		c-0.623,0-1.194,0.188-1.711,0.566c-0.518,0.378-0.819,0.89-0.903,1.533h4.956C301.156,61.565,300.904,61.047,300.47,60.683z"/>
	<path fill="#606060" d="M312.629,60.494c-0.938,0-1.638,0.333-2.1,0.998s-0.693,1.543-0.693,2.636v4.893h-3.15V57.722h3.15v1.491
		c0.406-0.462,0.914-0.854,1.522-1.177c0.609-0.321,1.229-0.489,1.858-0.504l0.021,2.961L312.629,60.494L312.629,60.494z"/>
	<path fill="#606060" d="M331.76,54.341v2.919h-7.308v3.023h6.573v2.793h-6.573v3.045h7.539v2.898h-10.815V54.341H331.76z"/>
	<path fill="#606060" d="M341.168,57.533c1.316,0,2.489,0.55,3.518,1.648c1.029,1.1,1.543,2.482,1.543,4.147
		c0,1.667-0.515,3.06-1.543,4.18c-1.028,1.12-2.233,1.68-3.612,1.68s-2.489-0.553-3.329-1.659v5.565h-3.15V57.722h3.15v1.26
		C338.711,58.016,339.852,57.533,341.168,57.533z M337.703,63.381c0,0.917,0.255,1.666,0.767,2.247
		c0.511,0.581,1.13,0.872,1.858,0.872s1.365-0.291,1.911-0.872c0.546-0.581,0.819-1.326,0.819-2.236c0-0.91-0.266-1.673-0.798-2.289
		s-1.169-0.924-1.911-0.924s-1.369,0.305-1.879,0.913C337.958,61.702,337.703,62.464,337.703,63.381z"/>
	<path fill="#606060" d="M348.843,56.284c-0.357-0.357-0.536-0.795-0.536-1.312s0.179-0.956,0.536-1.312
		c0.357-0.357,0.794-0.536,1.312-0.536s0.956,0.179,1.312,0.536c0.357,0.356,0.536,0.795,0.536,1.312s-0.179,0.955-0.536,1.312
		c-0.357,0.356-0.794,0.535-1.312,0.535S349.2,56.64,348.843,56.284z M351.731,69.02h-3.15V57.722h3.15V69.02z"/>
	<path fill="#606060" d="M359.238,69.188c-1.337,0-2.531-0.567-3.581-1.701c-1.05-1.134-1.575-2.541-1.575-4.221
		s0.511-3.056,1.533-4.127c1.022-1.07,2.219-1.606,3.591-1.606s2.492,0.483,3.36,1.449v-5.544h3.15V69.02h-3.15v-1.491
		C361.684,68.635,360.575,69.188,359.238,69.188z M357.254,63.392c0,0.91,0.273,1.655,0.819,2.236s1.183,0.872,1.911,0.872
		s1.347-0.291,1.858-0.872c0.511-0.581,0.767-1.33,0.767-2.247s-0.256-1.68-0.767-2.289c-0.511-0.608-1.138-0.913-1.879-0.913
		c-0.742,0-1.379,0.308-1.911,0.924C357.519,61.719,357.254,62.482,357.254,63.392z"/>
	<path fill="#606060" d="M378.484,67.382c-1.274,1.204-2.769,1.806-4.483,1.806s-3.132-0.528-4.252-1.586
		c-1.12-1.057-1.68-2.474-1.68-4.252s0.57-3.192,1.711-4.242s2.489-1.575,4.043-1.575s2.873,0.47,3.958,1.407
		c1.084,0.938,1.627,2.227,1.627,3.864v1.68h-8.232c0.098,0.616,0.42,1.12,0.966,1.512c0.546,0.393,1.162,0.589,1.848,0.589
		c1.105,0,2.016-0.371,2.73-1.113L378.484,67.382z M375.46,60.683c-0.434-0.364-0.963-0.546-1.585-0.546
		c-0.623,0-1.194,0.188-1.711,0.566c-0.518,0.378-0.819,0.89-0.903,1.533h4.956C376.146,61.565,375.894,61.047,375.46,60.683z"/>
	<path fill="#606060" d="M392.05,62.93v6.09h-3.171v-6.174c0-0.896-0.136-1.554-0.409-1.975c-0.273-0.42-0.714-0.63-1.323-0.63
		s-1.148,0.229-1.617,0.683c-0.469,0.455-0.704,1.124-0.704,2.006v6.09h-3.15V57.722h3.15v1.281c0.868-0.98,1.862-1.471,2.982-1.471
		c0.714,0,1.361,0.21,1.942,0.63c0.581,0.421,1.019,0.932,1.312,1.533c0.434-0.686,1.019-1.218,1.753-1.596s1.473-0.567,2.215-0.567
		c1.33,0,2.401,0.396,3.213,1.187s1.219,1.936,1.219,3.434v6.867h-3.171v-6.174c0-1.736-0.638-2.604-1.911-2.604
		c-0.63,0-1.177,0.229-1.638,0.683C392.281,61.379,392.05,62.048,392.05,62.93z"/>
	<path fill="#606060" d="M402.581,56.284c-0.357-0.357-0.536-0.795-0.536-1.312s0.179-0.956,0.536-1.312
		c0.356-0.357,0.794-0.536,1.312-0.536s0.955,0.179,1.312,0.536c0.356,0.356,0.535,0.795,0.535,1.312s-0.179,0.955-0.535,1.312
		c-0.357,0.356-0.795,0.535-1.312,0.535C403.375,56.819,402.938,56.64,402.581,56.284z M405.468,69.02h-3.149V57.722h3.149V69.02z"
		/>
	<path fill="#606060" d="M419.748,63.371c0,1.639-0.567,3.018-1.701,4.138c-1.134,1.12-2.559,1.68-4.273,1.68s-3.14-0.56-4.273-1.68
		s-1.701-2.499-1.701-4.138c0-1.638,0.567-3.02,1.701-4.147c1.134-1.126,2.559-1.69,4.273-1.69s3.14,0.564,4.273,1.69
		C419.181,60.351,419.748,61.733,419.748,63.371z M410.97,63.371c0,0.925,0.263,1.677,0.788,2.258
		c0.524,0.581,1.196,0.872,2.016,0.872s1.491-0.291,2.016-0.872s0.788-1.333,0.788-2.258c0-0.924-0.263-1.68-0.788-2.268
		c-0.524-0.588-1.196-0.882-2.016-0.882s-1.491,0.294-2.016,0.882C411.233,61.691,410.97,62.447,410.97,63.371z"/>
	<path fill="#606060" d="M425.229,69.02h-3.149V53.438h3.149V69.02z"/>
	<path fill="#606060" d="M439.509,63.371c0,1.639-0.567,3.018-1.701,4.138c-1.134,1.12-2.559,1.68-4.273,1.68s-3.14-0.56-4.273-1.68
		s-1.701-2.499-1.701-4.138c0-1.638,0.567-3.02,1.701-4.147c1.134-1.126,2.559-1.69,4.273-1.69s3.14,0.564,4.273,1.69
		C438.942,60.351,439.509,61.733,439.509,63.371z M430.731,63.371c0,0.925,0.263,1.677,0.788,2.258
		c0.524,0.581,1.196,0.872,2.016,0.872s1.491-0.291,2.016-0.872s0.788-1.333,0.788-2.258c0-0.924-0.263-1.68-0.788-2.268
		c-0.524-0.588-1.196-0.882-2.016-0.882s-1.491,0.294-2.016,0.882C430.993,61.691,430.731,62.447,430.731,63.371z"/>
	<path fill="#606060" d="M450.197,67.109c-0.994,1.106-2.229,1.659-3.706,1.659c-1.478,0-2.724-0.5-3.738-1.502
		c-1.015-1-1.522-2.338-1.522-4.011c0-1.673,0.521-3.045,1.564-4.116c1.043-1.07,2.236-1.606,3.581-1.606
		c1.344,0,2.457,0.554,3.339,1.659v-1.491h3.149v9.85c0,1.008-0.175,1.903-0.524,2.688c-0.351,0.784-0.819,1.4-1.407,1.849
		c-1.162,0.924-2.534,1.386-4.116,1.386c-0.84,0-1.697-0.137-2.572-0.409c-0.875-0.273-1.642-0.662-2.3-1.166l1.219-2.373
		c1.035,0.784,2.131,1.176,3.286,1.176s2.068-0.287,2.74-0.86C449.861,69.265,450.197,68.355,450.197,67.109z M449.757,63.129
		c0-0.903-0.252-1.613-0.756-2.132c-0.504-0.518-1.128-0.776-1.869-0.776c-0.742,0-1.383,0.259-1.922,0.776
		c-0.539,0.519-0.809,1.226-0.809,2.121c0,0.896,0.263,1.621,0.788,2.174c0.524,0.554,1.165,0.829,1.921,0.829
		s1.387-0.272,1.891-0.818S449.757,64.033,449.757,63.129z"/>
	<path fill="#606060" d="M457.8,73.472c-1.106,0-2.149-0.448-3.129-1.344l1.428-2.331c0.531,0.518,1.078,0.776,1.638,0.776
		c0.294,0,0.546-0.144,0.756-0.431s0.315-0.591,0.315-0.913s-1.456-4.158-4.368-11.508h3.36l2.751,7.035l2.751-7.035h3.359
		l-5.25,13.313c-0.308,0.771-0.787,1.369-1.438,1.796C459.322,73.258,458.598,73.472,457.8,73.472z"/>
	<path fill="#606060" d="M482.663,67.76c-1.176,0.952-2.538,1.428-4.085,1.428s-2.817-0.396-3.812-1.187s-1.49-1.872-1.49-3.244
		c0-1.54,1.028-2.905,3.087-4.096c-0.462-0.56-0.798-1.053-1.008-1.48s-0.315-0.927-0.315-1.501c0-1.189,0.431-2.101,1.292-2.73
		c0.86-0.63,1.879-0.944,3.055-0.944c1.177,0,2.181,0.304,3.014,0.913s1.25,1.46,1.25,2.552c0,1.372-1.001,2.646-3.003,3.822
		c0.783,0.979,1.371,1.687,1.764,2.12c0.35-0.644,0.616-1.322,0.798-2.036l2.457,1.764c-0.322,0.882-0.714,1.701-1.176,2.457
		l2.079,2.058l-2.079,1.975L482.663,67.76z M477.014,66.08c0.406,0.322,0.932,0.483,1.575,0.483s1.337-0.308,2.079-0.924
		c-1.022-1.078-1.904-2.059-2.646-2.94c-1.079,0.672-1.617,1.394-1.617,2.163C476.405,65.352,476.608,65.758,477.014,66.08z
		 M479.387,56.483c-0.308,0-0.584,0.108-0.829,0.325c-0.245,0.218-0.367,0.512-0.367,0.883s0.279,0.906,0.84,1.606
		c1.05-0.561,1.575-1.085,1.575-1.575c0-0.406-0.126-0.714-0.378-0.924C479.975,56.588,479.695,56.483,479.387,56.483z"/>
	<path fill="#606060" d="M503.873,61.544h3.297v5.208c-1.456,1.624-3.472,2.436-6.048,2.436c-2.156,0-3.966-0.714-5.429-2.142
		c-1.463-1.429-2.194-3.23-2.194-5.408c0-2.177,0.746-3.993,2.236-5.449c1.491-1.456,3.29-2.184,5.397-2.184
		c2.106,0,3.938,0.692,5.491,2.079l-1.701,2.457c-0.658-0.574-1.264-0.97-1.816-1.187c-0.553-0.218-1.151-0.326-1.795-0.326
		c-1.246,0-2.297,0.424-3.15,1.271c-0.854,0.848-1.281,1.964-1.281,3.35s0.41,2.496,1.229,3.328c0.819,0.834,1.796,1.25,2.93,1.25
		s2.079-0.217,2.835-0.651L503.873,61.544L503.873,61.544z"/>
	<path fill="#606060" d="M519.561,67.382c-1.274,1.204-2.77,1.806-4.483,1.806c-1.716,0-3.133-0.528-4.253-1.586
		c-1.12-1.057-1.68-2.474-1.68-4.252s0.57-3.192,1.711-4.242c1.142-1.05,2.488-1.575,4.043-1.575c1.554,0,2.873,0.47,3.958,1.407
		c1.085,0.938,1.628,2.227,1.628,3.864v1.68h-8.232c0.098,0.616,0.42,1.12,0.966,1.512c0.547,0.393,1.162,0.589,1.849,0.589
		c1.105,0,2.016-0.371,2.729-1.113L519.561,67.382z M516.536,60.683c-0.434-0.364-0.963-0.546-1.585-0.546
		c-0.624,0-1.194,0.188-1.712,0.566c-0.519,0.378-0.819,0.89-0.903,1.533h4.956C517.222,61.565,516.97,61.047,516.536,60.683z"/>
	<path fill="#606060" d="M525.901,62.72v6.3h-3.149V57.722h3.149v1.26c0.952-0.966,2.023-1.449,3.213-1.449s2.188,0.42,2.993,1.261
		c0.805,0.84,1.207,1.96,1.207,3.359v6.867h-3.149v-6.384c0-1.736-0.638-2.604-1.911-2.604c-0.63,0-1.18,0.228-1.648,0.683
		C526.136,61.169,525.901,61.838,525.901,62.72z"/>
	<path fill="#606060" d="M545.957,67.382c-1.274,1.204-2.77,1.806-4.483,1.806c-1.716,0-3.133-0.528-4.253-1.586
		c-1.12-1.057-1.68-2.474-1.68-4.252s0.57-3.192,1.711-4.242c1.142-1.05,2.488-1.575,4.043-1.575c1.554,0,2.873,0.47,3.958,1.407
		c1.085,0.938,1.628,2.227,1.628,3.864v1.68h-8.232c0.098,0.616,0.42,1.12,0.966,1.512c0.547,0.393,1.162,0.589,1.849,0.589
		c1.105,0,2.016-0.371,2.729-1.113L545.957,67.382z M542.933,60.683c-0.434-0.364-0.963-0.546-1.585-0.546
		c-0.624,0-1.194,0.188-1.712,0.566c-0.519,0.378-0.819,0.89-0.903,1.533h4.956C543.618,61.565,543.366,61.047,542.933,60.683z"/>
	<path fill="#606060" d="M552.781,59.99v5.062c0,0.434,0.112,0.773,0.336,1.019s0.49,0.367,0.798,0.367
		c0.588,0,1.085-0.266,1.491-0.798l1.176,2.205c-0.979,0.896-2.013,1.344-3.098,1.344s-2.002-0.357-2.751-1.071
		s-1.123-1.687-1.123-2.919V59.99h-1.323v-2.268h1.323v-3.381h3.171v3.381h2.73v2.268H552.781z"/>
	<path fill="#606060" d="M558.526,56.284c-0.357-0.357-0.536-0.795-0.536-1.312s0.179-0.956,0.536-1.312
		c0.356-0.357,0.794-0.536,1.312-0.536s0.955,0.179,1.312,0.536c0.356,0.356,0.535,0.795,0.535,1.312s-0.179,0.955-0.535,1.312
		c-0.357,0.356-0.795,0.535-1.312,0.535C559.319,56.819,558.882,56.64,558.526,56.284z M561.412,69.02h-3.149V57.722h3.149V69.02z"
		/>
	<path fill="#606060" d="M569.813,66.395c1.05,0,1.995-0.525,2.835-1.575l1.869,2.101c-1.456,1.512-3.031,2.268-4.726,2.268
		c-1.693,0-3.125-0.535-4.294-1.606s-1.754-2.471-1.754-4.2s0.592-3.136,1.774-4.221c1.184-1.085,2.587-1.628,4.211-1.628
		c0.812,0,1.634,0.168,2.468,0.504c0.832,0.336,1.564,0.834,2.194,1.491l-1.639,2.143c-0.364-0.435-0.809-0.771-1.333-1.009
		c-0.525-0.237-1.047-0.356-1.564-0.356c-0.826,0-1.537,0.27-2.132,0.809s-0.893,1.288-0.893,2.247c0,0.959,0.298,1.704,0.893,2.236
		S569.015,66.395,569.813,66.395z"/>
	<path fill="#606060" d="M585.121,65.502c0,1.113-0.409,2.006-1.229,2.678s-1.858,1.008-3.118,1.008
		c-0.841,0-1.716-0.15-2.625-0.451c-0.91-0.301-1.729-0.746-2.457-1.334l1.386-1.974c1.176,0.91,2.429,1.365,3.759,1.365
		c0.406,0,0.728-0.081,0.966-0.242c0.238-0.16,0.357-0.374,0.357-0.641c0-0.266-0.165-0.511-0.494-0.734s-0.805-0.434-1.428-0.63
		s-1.099-0.364-1.428-0.504c-0.329-0.141-0.703-0.344-1.124-0.609c-0.854-0.532-1.28-1.319-1.28-2.362s0.42-1.894,1.26-2.552
		s1.925-0.987,3.255-0.987s2.66,0.448,3.99,1.345l-1.176,2.1c-0.98-0.672-1.957-1.008-2.93-1.008c-0.974,0-1.46,0.266-1.46,0.798
		c0,0.294,0.154,0.525,0.462,0.693c0.309,0.168,0.819,0.364,1.533,0.588s1.222,0.396,1.522,0.515
		c0.301,0.118,0.662,0.304,1.082,0.556C584.729,63.595,585.121,64.389,585.121,65.502z"/>
</g>
</svg>
