<?xml version="1.0" encoding="utf-8"?>
<!-- Generator: Adobe Illustrator 27.1.1, SVG Export Plug-In . SVG Version: 6.00 Build 0)  -->
<svg version="1.1" id="Flattened_art" xmlns="http://www.w3.org/2000/svg" xmlns:xlink="http://www.w3.org/1999/xlink" x="0px"
	 y="0px" viewBox="0 0 390.77 97.31" style="enable-background:new 0 0 390.77 97.31;" xml:space="preserve">
<style type="text/css">
	.st0{fill:#626366;}
	.st1{fill:#20568B;}
	.st2{fill:#616365;}
	.st3{font-family:'HelveticaNeue-Medium';}
	.st4{font-size:20.5px;}
	.st5{font-family:'HelveticaNeue-MediumItalic';}
	.st6{font-size:15.5px;}
</style>
<g>
	<g>
		<g>
			<g>
				<path class="st0" d="M77.11,19.84H25.56c-2.57,0-4.66,2.09-4.66,4.66v41.31c0,2.57,2.08,4.66,4.66,4.66h51.51l14.05-25.33
					L77.11,19.84z M47.1,56.53h-4.18l-10.3-16.64h-0.09v16.64h-3.77V33.9h4.19l10.33,16.67h0.06V33.9h3.77V56.53z M54.96,56.53H51
					V33.9h3.96V56.53z M73.19,56.53v-10.2h-10.3v10.2h-3.96V33.9h3.96v9h10.3v-9h3.96v22.63H73.19z"/>
			</g>
			<path class="st1" d="M80.58,70.47l14.03-25.33L80.63,19.85h3.5c1.92,0,4.25,1.37,5.17,3.05l12.29,22.24L89.25,67.42
				c-0.93,1.68-3.26,3.05-5.17,3.05H80.58z"/>
		</g>
	</g>
	<text transform="matrix(1 0 0 1 108.9462 51.5274)" class="st2 st3 st4">National Institutes of Health</text>
	<text transform="matrix(1 0 0 1 108.9462 70.0722)" class="st2 st5 st6">LDlink</text>
</g>
</svg>
